<?xml version="1.0" encoding="UTF-8"?>
<svg id="Layer_1" xmlns="http://www.w3.org/2000/svg" width="160" height="50" viewBox="0 0 160 50">
  <defs>
    <style>
      .cls-1 { fill: #ed1; stroke: #231f20; stroke-miterlimit: 10; stroke-width: 0.5px; }
    </style>
  </defs>
  <g transform="scale(0.543) translate(0, 0)">
    <path class="cls-1" d="M281.01,74.3c-.97-2.26-2.53-4.03-4.43-4.97-12.35-6.1-31.2-6.23-31.2-6.23-9.39-31.82-31.15-34.31-56.61-34v-11.85L183.95.25h-7.42l4.82,16.69v87.96h68.59c0-8.4,5.4-15.21,12.05-15.21s12.05,6.81,12.05,15.21h20.04l-13.07-30.59ZM184.62,101.78h-1.24V16.74l-3.62-12.63,4.85,11.81v85.85ZM219.06,71.18c-13.15-4.13-12.78-19.34-12.78-19.34h20.7c-8.9-15.75-38.21-16.94-38.21-16.94,45.41-4.6,50.97,25.01,54.77,33.55,22.43.41,31.55,5.07,31.55,5.07-16.81-3.35-56.04-2.34-56.04-2.34Z"/>
    <polygon class="cls-1" points="173.55 104.9 .01 104.9 165.4 97.1 165.4 39.32 .01 31.95 173.55 31.95 173.55 104.9"/>
    <path class="cls-1" d="M261.99,92.62c-5.38,0-9.73,5.5-9.73,12.28h19.47c0-6.78-4.36-12.28-9.73-12.28Z"/>
  </g>
</svg>